<?xml version="1.0" standalone="no"?>
<!DOCTYPE svg PUBLIC "-//W3C//DTD SVG 20010904//EN"
 "http://www.w3.org/TR/2001/REC-SVG-20010904/DTD/svg10.dtd">
<svg version="1.0" xmlns="http://www.w3.org/2000/svg"
 width="5760.000000pt" height="1200.000000pt" viewBox="0 0 5760.000000 1200.000000"
 preserveAspectRatio="xMidYMid meet">

<g transform="translate(0.000000,1200.000000) scale(0.100000,-0.100000)"
fill="#000000" stroke="none">
<path d="M45014 11520 c-215 -30 -412 -183 -561 -435 -27 -45 -1568 -2609
-2488 -4140 -205 -341 -734 -1221 -1175 -1955 -441 -734 -804 -1338 -807
-1343 -2 -4 344 -7 770 -7 l775 0 62 108 c35 59 76 130 93 157 17 28 87 147
157 265 166 281 364 615 645 1090 125 212 244 412 263 445 19 33 61 103 92
155 31 52 79 133 107 180 27 47 92 157 145 245 52 88 141 239 198 335 56 96
158 267 225 380 67 113 168 284 225 380 56 96 144 245 195 330 108 182 300
506 503 850 79 135 157 265 172 290 15 25 50 83 77 130 300 510 376 632 388
618 7 -7 93 -148 190 -313 98 -165 247 -415 330 -555 84 -140 196 -329 250
-420 54 -91 167 -280 250 -420 684 -1146 705 -1182 699 -1191 -2 -4 -538 -7
-1191 -8 -654 -1 -1191 -5 -1195 -9 -3 -4 -52 -86 -108 -182 -56 -96 -133
-227 -170 -290 -154 -263 -350 -601 -350 -605 0 -3 827 -5 1838 -5 l1837 0
247 -412 c348 -582 881 -1477 904 -1515 l18 -33 813 0 c447 0 813 3 813 6 0 3
-122 209 -272 457 -150 249 -377 625 -504 837 -128 212 -365 606 -527 875
-162 270 -371 616 -464 770 -93 154 -286 474 -428 710 -268 445 -844 1402
-1108 1840 -83 138 -308 511 -500 830 -192 319 -424 704 -515 855 -212 354
-266 432 -360 522 -122 116 -249 172 -407 181 -49 3 -117 2 -151 -3z"/>
</g>
</svg>
