<?xml version="1.0" standalone="no"?>
<!DOCTYPE svg PUBLIC "-//W3C//DTD SVG 20010904//EN"
 "http://www.w3.org/TR/2001/REC-SVG-20010904/DTD/svg10.dtd">
<svg version="1.0" xmlns="http://www.w3.org/2000/svg"
 width="5760.000000pt" height="1200.000000pt" viewBox="0 0 5760.000000 1200.000000"
 preserveAspectRatio="xMidYMid meet">

<g transform="translate(0.000000,1200.000000) scale(0.100000,-0.100000)"
fill="#000000" stroke="none">
<path d="M40638 9390 c-99 -25 -222 -110 -297 -205 -42 -54 -3411 -5659 -3411
-5675 0 -7 204 -9 576 -8 l575 3 1317 2227 c724 1225 1320 2228 1323 2228 7 0
1289 -2152 1289 -2163 0 -4 -400 -7 -889 -7 l-889 0 -236 -404 c-130 -223
-236 -407 -236 -410 0 -3 618 -6 1373 -6 l1372 0 436 -733 437 -732 607 -3
c575 -2 607 -1 603 15 -5 18 -3305 5504 -3376 5613 -63 96 -161 186 -247 227
-73 34 -85 37 -184 39 -58 2 -123 -1 -143 -6z"/>
<path d="M13382 6413 l3 -2908 503 -3 502 -2 0 2400 0 2400 1963 2 1962 3 3
508 2 507 -2470 0 -2470 0 2 -2907z"/>
<path d="M19022 6413 l3 -2908 2463 -3 2462 -2 0 510 0 510 -1955 0 -1955 0 0
2400 0 2400 -510 0 -510 0 2 -2907z"/>
<path d="M22217 9296 c10 -13 702 -824 1538 -1801 l1520 -1776 5 -1107 5
-1107 505 0 505 0 3 1106 2 1106 1496 1744 c823 959 1519 1770 1546 1802 l50
57 -649 0 -648 0 -1130 -1334 c-621 -734 -1134 -1334 -1140 -1332 -5 1 -516
601 -1135 1334 l-1125 1332 -683 0 -684 0 19 -24z"/>
<path d="M31060 6410 l0 -2910 505 0 505 0 0 2910 0 2910 -505 0 -505 0 0
-2910z"/>
<path d="M32792 8813 l3 -508 1103 -3 1102 -2 0 -2400 0 -2400 508 2 507 3 3
2398 2 2397 1100 0 1100 0 0 510 0 510 -2715 0 -2715 0 2 -507z"/>
<path d="M15132 6358 l3 -443 1473 -3 1472 -2 0 445 0 445 -1475 0 -1475 0 2
-442z"/>
<path d="M16461 3152 c2 -5 83 -194 179 -420 128 -302 179 -412 191 -412 12 0
63 110 193 413 97 227 176 416 176 420 0 4 -10 7 -23 7 -20 0 -39 -39 -182
-374 -88 -206 -163 -372 -167 -368 -3 4 -76 171 -161 372 -146 344 -157 365
-182 368 -15 2 -26 -1 -24 -6z"/>
<path d="M18370 2740 c0 -413 0 -420 20 -420 20 0 20 7 20 420 0 413 0 420
-20 420 -20 0 -20 -7 -20 -420z"/>
<path d="M19570 2740 l0 -420 25 0 25 0 0 200 0 200 150 0 150 0 171 -200
c152 -179 174 -200 201 -200 l30 0 -48 58 c-27 31 -103 120 -168 197 l-120
140 79 6 c93 6 129 22 178 80 57 66 67 163 25 244 -22 41 -55 70 -108 94 -42
19 -65 21 -317 21 l-273 0 0 -420z m574 356 c47 -20 94 -81 102 -133 13 -86
-41 -170 -124 -193 -20 -5 -140 -10 -269 -10 l-233 0 0 175 0 175 245 0 c186
0 254 -3 279 -14z"/>
<path d="M21480 3135 l0 -25 170 0 170 0 0 -395 0 -395 25 0 25 0 0 395 0 395
170 0 170 0 0 25 0 25 -365 0 -365 0 0 -25z"/>
<path d="M23372 2873 l3 -288 27 -57 c34 -73 98 -137 174 -174 51 -25 70 -28
149 -29 77 0 98 4 147 27 79 37 142 98 181 177 l32 65 3 283 3 283 -25 0 -26
0 0 -264 c0 -323 -4 -341 -95 -432 -76 -77 -133 -99 -239 -92 -120 8 -217 76
-269 188 -20 42 -22 65 -25 323 -3 268 -4 277 -23 277 -19 0 -20 -7 -17 -287z"/>
<path d="M25431 2747 c-96 -226 -176 -416 -179 -420 -2 -5 8 -7 24 -5 25 3 32
13 63 90 l36 88 247 0 246 0 38 -90 c32 -77 40 -90 60 -90 13 0 24 3 24 6 0 3
-79 192 -176 420 -129 300 -181 414 -193 414 -12 0 -64 -115 -190 -413z m409
-189 c0 -5 -99 -8 -221 -8 -173 0 -220 3 -216 13 3 6 46 107 95 222 49 116 97
228 106 250 l17 40 110 -255 c60 -140 109 -258 109 -262z"/>
<path d="M27150 2740 l0 -420 366 0 365 0 -3 23 -3 22 -337 3 -338 2 0 395 0
395 -25 0 -25 0 0 -420z"/>
<path d="M30601 2747 c-96 -226 -176 -416 -179 -420 -2 -5 8 -7 24 -5 25 3 32
13 63 90 l36 88 247 0 246 0 38 -90 c32 -77 40 -90 60 -90 13 0 24 3 24 6 0 3
-79 192 -176 420 -129 300 -181 414 -193 414 -12 0 -64 -115 -190 -413z m409
-189 c0 -5 -99 -8 -221 -8 -173 0 -220 3 -216 13 3 6 46 107 95 222 49 116 97
228 106 250 l17 40 110 -255 c60 -140 109 -258 109 -262z"/>
<path d="M32330 2740 c0 -413 0 -420 20 -420 20 0 20 7 20 420 0 413 0 420
-20 420 -20 0 -20 -7 -20 -420z"/>
<path d="M33530 2740 l0 -420 25 0 25 0 0 200 0 200 150 0 150 0 171 -200
c152 -179 174 -200 201 -200 l30 0 -48 58 c-27 31 -103 120 -168 197 l-120
140 79 6 c93 6 129 22 178 80 57 66 67 163 25 244 -22 41 -55 70 -108 94 -42
19 -65 21 -317 21 l-273 0 0 -420z m574 356 c47 -20 94 -81 102 -133 13 -86
-41 -170 -124 -193 -20 -5 -140 -10 -269 -10 l-233 0 0 175 0 175 245 0 c186
0 254 -3 279 -14z"/>
<path d="M35440 2740 l0 -420 366 0 365 0 -3 23 -3 22 -337 3 -338 2 0 395 0
395 -25 0 -25 0 0 -420z"/>
<path d="M37330 2740 c0 -413 0 -420 20 -420 20 0 20 7 20 420 0 413 0 420
-20 420 -20 0 -20 -7 -20 -420z"/>
<path d="M38530 2740 l0 -420 25 0 25 0 2 373 3 373 318 -373 c217 -255 324
-373 337 -373 20 0 20 10 20 420 l0 420 -25 0 -25 0 -2 -374 -3 -374 -319 374
c-206 242 -326 374 -338 374 -17 0 -18 -18 -18 -420z"/>
<path d="M40420 2740 l0 -420 360 0 360 0 0 25 0 25 -340 0 -340 0 2 173 3
172 218 3 c209 2 217 3 217 22 0 19 -7 20 -220 20 l-220 0 0 175 0 175 340 0
340 0 0 25 0 25 -360 0 -360 0 0 -420z"/>
</g>
</svg>
