<?xml version="1.0" standalone="no"?>
<!DOCTYPE svg PUBLIC "-//W3C//DTD SVG 20010904//EN"
 "http://www.w3.org/TR/2001/REC-SVG-20010904/DTD/svg10.dtd">
<svg version="1.0" xmlns="http://www.w3.org/2000/svg"
 width="130.000000pt" height="46.000000pt" viewBox="0 0 130.000000 46.000000"
 preserveAspectRatio="xMidYMid meet">

<g transform="translate(0.000000,46.000000) scale(0.100000,-0.100000)"
fill="#000000" stroke="none">
<path d="M20 250 c0 -113 1 -120 20 -120 19 0 20 7 20 100 l0 100 80 0 c73 0
80 2 80 20 0 19 -7 20 -100 20 l-100 0 0 -120z"/>
<path d="M250 250 l0 -120 100 0 c93 0 100 1 100 20 0 18 -7 20 -80 20 l-80 0
0 100 c0 93 -1 100 -20 100 -19 0 -20 -7 -20 -120z"/>
<path d="M401 343 c110 -123 109 -121 109 -168 0 -38 3 -45 20 -45 17 0 20 7
20 48 0 43 5 53 60 117 55 64 58 70 37 74 -16 2 -34 -11 -70 -50 l-48 -54 -48
53 c-36 39 -54 52 -76 52 l-29 0 25 -27z"/>
<path d="M740 250 c0 -120 0 -121 23 -118 21 3 22 6 22 118 0 112 -1 115 -22
118 -23 3 -23 2 -23 -118z"/>
<path d="M810 351 c0 -17 8 -20 48 -23 l47 -3 3 -97 c2 -90 4 -98 22 -98 19 0
20 7 20 100 l0 100 45 0 c38 0 45 3 45 20 0 19 -7 20 -115 20 -107 0 -115 -1
-115 -19z"/>
<path d="M1097 318 c-56 -90 -107 -175 -107 -182 0 -3 9 -6 20 -6 20 0 29 13
104 137 l28 47 24 -39 24 -40 -37 -5 c-26 -3 -39 -11 -41 -22 -3 -15 4 -18 50
-18 49 0 55 -3 71 -30 13 -21 26 -30 44 -30 24 0 24 1 11 22 -8 13 -41 67 -73
121 -31 53 -64 97 -71 97 -7 0 -28 -24 -47 -52z"/>
<path d="M90 250 c0 -18 7 -20 60 -20 53 0 60 2 60 20 0 18 -7 20 -60 20 -53
0 -60 -2 -60 -20z"/>
</g>
</svg>
