<?xml version="1.0" standalone="no"?>
<!DOCTYPE svg PUBLIC "-//W3C//DTD SVG 20010904//EN"
 "http://www.w3.org/TR/2001/REC-SVG-20010904/DTD/svg10.dtd">
<svg version="1.0" xmlns="http://www.w3.org/2000/svg"
 width="5760.000000pt" height="1200.000000pt" viewBox="0 0 5760.000000 1200.000000"
 preserveAspectRatio="xMidYMid meet">

<g transform="translate(0.000000,1200.000000) scale(0.100000,-0.100000)"
fill="#000000" stroke="none">
<path d="M40668 9399 c-134 -19 -272 -119 -372 -268 -51 -75 -3363 -5590
-3372 -5615 -6 -15 45 -16 578 -16 l583 0 1315 2225 c723 1223 1318 2223 1322
2222 7 -2 1278 -2133 1278 -2143 0 -2 -399 -5 -886 -6 l-886 -3 -239 -409
c-131 -225 -239 -410 -239 -412 0 -2 618 -4 1374 -4 l1374 0 438 -735 438
-735 613 0 c349 0 613 4 613 9 0 17 -3377 5619 -3424 5679 -92 121 -207 194
-331 211 -79 12 -97 12 -177 0z"/>
<path d="M31050 6415 l0 -2915 515 0 515 0 0 2915 0 2915 -515 0 -515 0 0
-2915z"/>
</g>
</svg>
