<?xml version="1.0" standalone="no"?>
<!DOCTYPE svg PUBLIC "-//W3C//DTD SVG 20010904//EN"
 "http://www.w3.org/TR/2001/REC-SVG-20010904/DTD/svg10.dtd">
<svg version="1.0" xmlns="http://www.w3.org/2000/svg"
 width="130.000000pt" height="46.000000pt" viewBox="0 0 130.000000 46.000000"
 preserveAspectRatio="xMidYMid meet">

<g transform="translate(0.000000,46.000000) scale(0.100000,-0.100000)"
fill="#000000" stroke="none">
<path d="M1107 348 c-36 -56 -127 -209 -127 -213 0 -3 9 -5 20 -5 14 0 34 25
71 88 28 48 53 89 54 90 4 4 55 -74 55 -83 0 -3 -15 -5 -34 -5 -18 0 -39 -7
-46 -15 -11 -13 -5 -15 46 -15 55 0 60 -2 76 -30 10 -18 25 -30 38 -30 11 0
20 2 20 5 0 11 -139 230 -148 233 -6 2 -17 -7 -25 -20z"/>
<path d="M738 245 c3 -92 6 -115 18 -115 11 0 14 22 14 115 0 103 -2 115 -17
115 -16 0 -18 -11 -15 -115z"/>
</g>
</svg>
